<?xml version="1.0" encoding="UTF-8" standalone="no"?>
<!-- Created with Inkscape (http://www.inkscape.org/) -->

<svg
   width="115.10352"
   height="59.634323"
   viewBox="0 0 115.10352 59.634323"
   version="1.1"
   id="svg1"
   xmlns:inkscape="http://www.inkscape.org/namespaces/inkscape"
   xmlns:sodipodi="http://sodipodi.sourceforge.net/DTD/sodipodi-0.dtd"
   xmlns="http://www.w3.org/2000/svg"
   xmlns:svg="http://www.w3.org/2000/svg">
  <sodipodi:namedview
     id="namedview1"
     pagecolor="#ffffff"
     bordercolor="#000000"
     borderopacity="0.25"
     inkscape:showpageshadow="2"
     inkscape:pageopacity="0.0"
     inkscape:pagecheckerboard="0"
     inkscape:deskcolor="#d1d1d1"
     inkscape:document-units="px"
     inkscape:zoom="4.5611111"
     inkscape:cx="115.21315"
     inkscape:cy="80.133983"
     inkscape:window-width="1920"
     inkscape:window-height="1017"
     inkscape:window-x="-8"
     inkscape:window-y="-8"
     inkscape:window-maximized="1"
     inkscape:current-layer="layer1" />
  <defs
     id="defs1" />
  <g
     inkscape:label="Taso 1"
     inkscape:groupmode="layer"
     id="layer1"
     transform="translate(-39.464844,-52.181641)">
    <path
       d="m 87.697266,53.716355 -18.75,22.585937 3.623046,8.984375 -12.142578,1.277344 -20.96289,25.251949 63.804686,-6.5625 4.37891,-5.935543 6.57031,4.808593 40.34961,-4.15039 z m 0.220703,7.234375 3.068359,3.726562 -7.673828,1.314453 z m 9.865234,7.234375 22.144527,16.662109 -28.722652,-5.042969 z m -17.976562,7.015625 10.083984,3.289062 -9.865234,12.496094 z m 5.259765,10.74414 5.042969,4.603516 -9.208984,1.753906 z m 14.689453,1.533203 c 0.301461,0 0.686321,0.02067 1.126951,0.05664 0.44063,0.03597 0.93753,0.08873 1.4668,0.150391 1.05854,0.123325 2.24359,0.286738 3.35352,0.451171 2.21985,0.328867 4.13867,0.658204 4.13867,0.658204 l -9.20899,5.919921 z m 30.914061,2.41211 8.11133,6.357422 -16.22266,2.851562 z m -61.60742,5.261718 2.849609,6.796869 c 0,0 -4.71447,0.65691 -9.208984,1.23242 -2.247257,0.28776 -4.437975,0.55679 -5.958984,0.71094 -0.760505,0.0771 -1.353464,0.12578 -1.701172,0.13477 -0.173854,0.004 -0.286375,-0.003 -0.328125,-0.0195 -0.04175,-0.0169 -0.01392,-0.0448 0.0957,-0.0859 0.219244,-0.0822 0.607615,-0.27969 1.117187,-0.56445 0.509573,-0.28477 1.140491,-0.65554 1.84961,-1.08204 1.418238,-0.85299 3.144666,-1.92925 4.816406,-2.984367 3.34348,-2.110229 6.46875,-4.138671 6.46875,-4.138672 z"
       style="fill:#d75361;fill-opacity:1"
       id="path25" />
    <path
       d="m 87.697266,52.181641 -18.75,22.585937 3.623046,8.984375 -12.142578,1.277344 -20.96289,25.251953 63.804686,-6.5625 4.37891,-5.935547 6.57031,4.808597 40.34961,-4.150394 z m 0.220703,7.234375 3.068359,3.726562 -7.673828,1.314453 z M 97.783203,66.650391 119.92773,83.3125 91.205078,78.269531 Z m -17.976562,7.015625 10.083984,3.289062 -9.865234,12.496094 z m 5.259765,10.74414 5.042969,4.603516 -9.208984,1.753906 z m 14.689453,1.533203 c 0.301461,0 0.686321,0.02067 1.126951,0.05664 0.44063,0.03597 0.93753,0.08873 1.4668,0.150391 1.05854,0.123325 2.24359,0.286738 3.35352,0.451171 2.21985,0.328867 4.13867,0.658204 4.13867,0.658204 l -9.20899,5.919921 z m 30.914061,2.41211 8.11133,6.357422 -16.22266,2.851562 z m -61.60742,5.261718 2.849609,6.796873 c 0,0 -4.71447,0.65691 -9.208984,1.23242 -2.247257,0.28776 -4.437975,0.55679 -5.958984,0.71094 -0.760505,0.0771 -1.353464,0.12578 -1.701172,0.13477 -0.173854,0.004 -0.286375,-0.003 -0.328125,-0.0195 -0.04175,-0.0169 -0.01392,-0.0448 0.0957,-0.0859 0.219244,-0.0822 0.607615,-0.27969 1.117187,-0.56445 0.509573,-0.28477 1.140491,-0.65554 1.84961,-1.08204 1.418238,-0.852994 3.144666,-1.929256 4.816406,-2.984371 3.34348,-2.110229 6.46875,-4.138671 6.46875,-4.138672 z"
       style="fill:#d3bd7b;fill-opacity:1"
       id="path24" />
  </g>
</svg>
