<?xml version="1.0" encoding="UTF-8" standalone="no"?>
<!-- Created with Inkscape (http://www.inkscape.org/) -->

<svg
   width="95.141273mm"
   height="47.208897mm"
   viewBox="0 0 95.141273 47.208897"
   version="1.1"
   id="svg1"
   xmlns:inkscape="http://www.inkscape.org/namespaces/inkscape"
   xmlns:sodipodi="http://sodipodi.sourceforge.net/DTD/sodipodi-0.dtd"
   xmlns="http://www.w3.org/2000/svg"
   xmlns:svg="http://www.w3.org/2000/svg">
  <sodipodi:namedview
     id="namedview1"
     pagecolor="#ffffff"
     bordercolor="#000000"
     borderopacity="0.25"
     inkscape:showpageshadow="2"
     inkscape:pageopacity="0.0"
     inkscape:pagecheckerboard="0"
     inkscape:deskcolor="#d1d1d1"
     inkscape:document-units="mm" />
  <defs
     id="defs1" />
  <g
     inkscape:groupmode="layer"
     id="layer4"
     inkscape:label="kurkku"
     transform="translate(-56.614496,-45.942752)">
    <path
       style="fill:#6e9f99;fill-opacity:1;stroke-width:0.264583"
       d="M 56.614493,91.342873 87.182702,45.942752 151.75578,48.475029 132.22107,85.193057 Z"
       id="path44" />
    <path
       style="fill:#e0d2b9;fill-opacity:1;stroke-width:0.264583"
       d="M 89.895859,49.741169 63.126066,88.448842 128.0609,83.022532 146.69123,50.826431 Z"
       id="path45" />
    <path
       style="fill:#1b433a;fill-opacity:1;stroke-width:0.264583"
       d="m 151.21315,48.655906 v 4.160171 l -17.54506,33.643117 -76.330088,6.69245 -0.361755,-1.627894 75.244823,-6.149816 z"
       id="path46" />
    <path
       style="fill:#d3ac7b;fill-opacity:1;stroke-width:0.264583"
       d="m 92.609013,62.040804 5.064556,1.808768 -2.713157,-4.702799 z"
       id="path47" />
    <path
       style="fill:#d3ac7b;fill-opacity:1;stroke-width:0.264583"
       d="m 98.216198,58.423264 1.447016,4.521925 1.989646,-5.245433 z"
       id="path48" />
    <path
       style="fill:#d3ac7b;fill-opacity:1;stroke-width:0.264583"
       d="m 103.28075,57.518879 -0.7235,4.521925 5.78806,-6.692448 z"
       id="path49" />
    <path
       style="fill:#d3ac7b;fill-opacity:1;stroke-width:0.264583"
       d="m 110.69671,63.849572 7.41596,-0.180877 -5.78807,3.255788 z"
       id="path50" />
    <path
       style="fill:#d3ac7b;fill-opacity:1;stroke-width:0.264583"
       d="m 108.52619,66.381851 4.16017,4.7028 -7.95859,-1.447014 3.07491,-3.255786 z"
       id="path51" />
    <path
       style="fill:#d3ac7b;fill-opacity:1;stroke-width:0.264583"
       d="m 104.18514,71.989036 -0.36175,4.160171 3.0749,-1.447014 z"
       id="path52" />
    <path
       style="fill:#d3ac7b;fill-opacity:1;stroke-width:0.264583"
       d="m 87.001825,70.722899 4.883679,2.713154 -4.883679,0.904386 z"
       id="path53" />
    <path
       style="fill:#d3ac7b;fill-opacity:1;stroke-width:0.264583"
       d="m 90.981119,76.510961 -3.979294,3.798417 0.904386,-4.521925 z"
       id="path54" />
    <path
       style="fill:#d3ac7b;fill-opacity:1;stroke-width:0.264583"
       d="m 83.565163,74.159562 1.447017,4.16017 -5.426311,-0.180877 z"
       id="path55" />
  </g>
</svg>
