<?xml version="1.0" encoding="UTF-8" standalone="no"?>
<!-- Created with Inkscape (http://www.inkscape.org/) -->

<svg
   width="117.57008mm"
   height="53.324387mm"
   viewBox="0 0 117.57008 53.324387"
   version="1.1"
   id="svg1"
   xmlns:inkscape="http://www.inkscape.org/namespaces/inkscape"
   xmlns:sodipodi="http://sodipodi.sourceforge.net/DTD/sodipodi-0.dtd"
   xmlns="http://www.w3.org/2000/svg"
   xmlns:svg="http://www.w3.org/2000/svg">
  <sodipodi:namedview
     id="namedview1"
     pagecolor="#ffffff"
     bordercolor="#000000"
     borderopacity="0.25"
     inkscape:showpageshadow="2"
     inkscape:pageopacity="0.0"
     inkscape:pagecheckerboard="0"
     inkscape:deskcolor="#d1d1d1"
     inkscape:document-units="mm" />
  <defs
     id="defs1" />
  <g
     inkscape:label="Taso 1"
     inkscape:groupmode="layer"
     id="layer1"
     transform="translate(-31.653365,-64.607428)">
    <path
       d="m 45.608586,65.394975 0.713134,0.01447 -0.333313,-0.527099 z"
       style="fill:#1b433a;stroke-width:0.264583"
       id="path28" />
    <path
       d="m 40.715861,65.297306 -0.72502,-0.01447 c -0.08182,0.156363 -0.155328,0.307434 -0.24288,0.466121 -0.361753,0.655679 -0.757754,1.311232 -1.062984,1.802991 -0.305229,0.491759 -0.519865,0.819588 -0.519865,0.819588 l -4.00699,-3.205489 -2.504757,-0.05013 45.038595,51.007223 1.44694,1.80868 1.085205,-0.36174 69.999345,-50.102885 -6.33967,-0.126608 0.73278,0.488343 -3.437,2.17041 0.94309,-2.694409 -1.40508,-0.02791 -4.24057,4.892725 0.45165,-4.968689 -2.23242,-0.04444 -4.18837,4.832264 v -4.915979 l -2.30374,-0.04599 -5.29322,4.961971 0.78962,-5.051888 -1.4087,-0.02842 -4.44521,5.080311 0.4837,-5.159375 -1.39837,-0.02791 -5.23534,4.282943 1.0542,-4.366659 -1.7694,-0.03566 -4.16822,3.859712 v -3.942911 l -1.68052,-0.03359 -4.831228,4.519104 v -4.615739 l -1.02216,-0.02067 -4.946984,4.093807 -0.600481,-4.204394 -2.108915,-0.04237 -4.706172,2.980697 -1.396298,-3.102653 -2.392102,-0.04806 -3.627685,4.416784 -1.715658,-4.523238 -1.361674,-0.02739 -6.147428,5.093229 0.473356,-5.206917 -2.051554,-0.04082 -6.018754,3.439067 V 65.7164 l -2.007113,-0.04031 -3.418913,3.418912 -2.404504,-3.535184 -1.737879,-0.03462 -3.454569,3.569808 -2.334225,-3.685563 -0.713134,-0.01447 -2.740918,3.700032 z"
       style="fill:#1b433a;stroke-width:0.264583"
       id="path27" />
    <path
       d="m 40.325187,64.607426 c -0.02918,0.06318 -0.04448,0.113059 -0.07596,0.178284 -0.07656,0.15858 -0.171171,0.330452 -0.258382,0.497127 l 0.72502,0.01447 z"
       style="fill:#1b433a;stroke-width:0.264583"
       id="path26" />
  </g>
</svg>
